<?xml version="1.0" standalone="no"?>
<!DOCTYPE svg PUBLIC "-//W3C//DTD SVG 20010904//EN"
 "http://www.w3.org/TR/2001/REC-SVG-20010904/DTD/svg10.dtd">
<svg version="1.0" xmlns="http://www.w3.org/2000/svg"
 width="700.000000pt" height="700.000000pt" viewBox="0 0 700.000000 700.000000"
 preserveAspectRatio="xMidYMid meet">
<metadata>
Created by potrace 1.14, written by Peter Selinger 2001-2017
</metadata>
<g transform="translate(0.000000,700.000000) scale(0.100000,-0.100000)"
fill="#000000" stroke="none">
<path d="M3462 5745 c-10 -11 -26 -31 -35 -45 -9 -14 -77 -115 -152 -225 -75
-110 -192 -283 -261 -385 -69 -102 -191 -282 -271 -400 -80 -118 -246 -363
-368 -545 -123 -181 -300 -445 -395 -585 -94 -140 -186 -277 -204 -305 -18
-27 -179 -270 -358 -540 -424 -641 -602 -911 -788 -1200 -56 -88 -116 -180
-132 -204 -16 -24 -28 -51 -26 -60 4 -17 2 -17 143 -6 50 4 108 8 130 10 22 1
85 6 140 10 55 4 116 9 135 10 81 5 239 16 295 20 105 8 207 15 295 20 47 3
119 7 160 10 41 3 116 7 165 10 50 2 133 7 185 10 253 15 523 28 800 40 213
10 240 12 247 19 5 5 12 37 39 176 3 14 12 52 21 85 8 33 17 71 20 84 2 14 6
28 8 32 3 4 7 22 10 40 3 19 41 162 83 319 l78 285 39 1 c47 2 332 5 358 4 19
0 19 -31 2 -190 -5 -44 -7 -82 -21 -345 -8 -175 -12 -435 -6 -457 4 -18 18
-18 266 -13 337 6 1715 6 2139 -1 305 -5 327 -4 327 12 0 10 -32 130 -71 268
-38 137 -76 273 -84 300 -8 28 -41 148 -75 266 -33 118 -62 222 -65 230 -2 8
-19 71 -38 140 -19 69 -58 208 -87 310 -28 102 -67 241 -86 309 -51 177 -234
842 -239 865 -5 20 -24 90 -104 376 -16 58 -42 150 -56 205 -159 589 -285
1049 -291 1054 -3 3 -422 6 -930 6 -918 1 -925 1 -942 -20z m772 -1064 c4 -5
-14 -92 -38 -193 -44 -179 -51 -212 -63 -273 -3 -16 -7 -37 -8 -45 -2 -8 -4
-20 -4 -26 -1 -7 -27 -12 -66 -13 l-64 -2 23 68 c54 155 195 493 207 493 4 0
10 -4 13 -9z m-184 -853 c0 -7 -7 -51 -16 -98 -8 -47 -17 -101 -20 -120 -2
-19 -9 -55 -14 -80 -5 -25 -14 -74 -20 -110 -5 -36 -12 -76 -15 -90 -2 -14
-11 -68 -20 -120 -8 -52 -18 -106 -21 -120 l-5 -26 -150 -2 -150 -2 7 22 c3
13 24 73 46 133 21 61 41 117 43 125 2 8 41 124 86 258 l81 242 84 0 c61 0 84
-3 84 -12z"/>
</g>
</svg>
