<?xml version="1.0" encoding="utf-8"?>
<!-- Generator: Adobe Illustrator 19.0.0, SVG Export Plug-In . SVG Version: 6.00 Build 0)  -->
<svg version="1.1" id="Layer_1" xmlns="http://www.w3.org/2000/svg" xmlns:xlink="http://www.w3.org/1999/xlink" x="0px" y="0px"
	 viewBox="1020 -1220 3000 3000" style="enable-background:new 1020 -1220 3000 3000;" xml:space="preserve">
<style type="text/css">
	.st0{fill:#191824;}
</style>
<path class="st0" d="M3819.8,1161.3C3645.9,547,3475.6-66.8,3309.3-683.7c-1-2.6-3.6-7.2-6.7-7.2c-263.9,0-527.9,0-791.8,0
	c-2,0-4.6,2-5.6,4.1C2072-48.9,1639.7,588.4,1221.3,1236.5c-3.1,4.6-0.5,14.8,5.1,14.3c382.6-30.2,764.2-53.2,1147.3-69.1
	c3.1-0.5,6.1-8.7,6.6-11.8c19.9-105.9,59.3-253.2,107.9-429.2c71.1-2,106.9-2.6,178-4.1c-6.1,62.4-10.2,120.2-12.8,170.8
	c-4.1,80.8-9.7,173.9-6.6,254.2c0,3.6,3.1,10.2,6.6,10.2c98.7-2,148.3-3.1,247.1-4.6c304.4-2.6,608.2-1,912.5,4.6
	C3817.3,1172.1,3820.8,1165.4,3819.8,1161.3z M2699.6,466.7c-51.7,0.5-77.8,1-129.4,2c35.8-104.9,74.2-208.7,113-334
	c29.7,0,44.5,0,74.2-0.5C2734.9,259,2714.9,383.3,2699.6,466.7z M2837.2-221.8c-18.9,75.7-36.8,148.3-53.2,231.2
	c-21.5,0-31.7,0.5-53.2,0.5c33.8-103.8,65.5-170.8,93.6-235.3C2827.5-233.1,2838.7-229.5,2837.2-221.8z"/>
</svg>
